<?xml version="1.0" encoding="utf-8" standalone="no"?>
<!DOCTYPE svg PUBLIC "-//W3C//DTD SVG 1.1//EN"
  "http://www.w3.org/Graphics/SVG/1.1/DTD/svg11.dtd">
<svg xmlns:xlink="http://www.w3.org/1999/xlink" width="460.8pt" height="345.6pt" viewBox="0 0 460.8 345.6" xmlns="http://www.w3.org/2000/svg" version="1.1">
 <metadata>
  <rdf:RDF xmlns:dc="http://purl.org/dc/elements/1.1/" xmlns:cc="http://creativecommons.org/ns#" xmlns:rdf="http://www.w3.org/1999/02/22-rdf-syntax-ns#">
   <cc:Work>
    <dc:type rdf:resource="http://purl.org/dc/dcmitype/StillImage"/>
    <dc:date>2024-05-29T15:57:32.578857</dc:date>
    <dc:format>image/svg+xml</dc:format>
    <dc:creator>
     <cc:Agent>
      <dc:title>Matplotlib v3.7.1, https://matplotlib.org/</dc:title>
     </cc:Agent>
    </dc:creator>
   </cc:Work>
  </rdf:RDF>
 </metadata>
 <defs>
  <style type="text/css">*{stroke-linejoin: round; stroke-linecap: butt}</style>
 </defs>
 <g id="figure_1">
  <g id="patch_1">
   <path d="M 0 345.6 
L 460.8 345.6 
L 460.8 0 
L 0 0 
z
" style="fill: #ffffff"/>
  </g>
  <g id="axes_1">
   <g id="PolyCollection_1">
    <defs>
     <path id="C0_0_efe9ce6c9d" d="M 141.578646 -75.572327 
L 141.578646 -76.491673 
L 141.12 -76.951347 
L 140.661354 -76.491673 
L 140.661354 -75.572327 
L 141.12 -75.112653 
z
"/>
    </defs>
    <g clip-path="url(#p38926ae608)">
     <use xlink:href="#C0_0_efe9ce6c9d" x="11.852782" y="335.571448" style="fill: #08306b; stroke: #08306b"/>
    </g>
    <g clip-path="url(#p38926ae608)">
     <use xlink:href="#C0_0_efe9ce6c9d" x="12.770073" y="335.571448" style="fill: #08316d; stroke: #08316d"/>
    </g>
    <g clip-path="url(#p38926ae608)">
     <use xlink:href="#C0_0_efe9ce6c9d" x="13.687365" y="335.571448" style="fill: #08316d; stroke: #08316d"/>
    </g>
    <g clip-path="url(#p38926ae608)">
     <use xlink:href="#C0_0_efe9ce6c9d" x="14.604657" y="335.571448" style="fill: #08306b; stroke: #08306b"/>
    </g>
    <g clip-path="url(#p38926ae608)">
     <use xlink:href="#C0_0_efe9ce6c9d" x="15.521948" y="335.571448" style="fill: #08306b; stroke: #08306b"/>
    </g>
    <g clip-path="url(#p38926ae608)">
     <use xlink:href="#C0_0_efe9ce6c9d" x="16.43924" y="335.571448" style="fill: #08306b; stroke: #08306b"/>
    </g>
    <g clip-path="url(#p38926ae608)">
     <use xlink:href="#C0_0_efe9ce6c9d" x="17.356532" y="335.571448" style="fill: #08306b; stroke: #08306b"/>
    </g>
    <g clip-path="url(#p38926ae608)">
     <use xlink:href="#C0_0_efe9ce6c9d" x="18.273823" y="335.571448" style="fill: #08306b; stroke: #08306b"/>
    </g>
    <g clip-path="url(#p38926ae608)">
     <use xlink:href="#C0_0_efe9ce6c9d" x="20.108406" y="332.813408" style="fill: #08306b; stroke: #08306b"/>
    </g>
    <g clip-path="url(#p38926ae608)">
     <use xlink:href="#C0_0_efe9ce6c9d" x="21.025698" y="332.813408" style="fill: #08306b; stroke: #08306b"/>
    </g>
    <g clip-path="url(#p38926ae608)">
     <use xlink:href="#C0_0_efe9ce6c9d" x="21.94299" y="332.813408" style="fill: #08326e; stroke: #08326e"/>
    </g>
    <g clip-path="url(#p38926ae608)">
     <use xlink:href="#C0_0_efe9ce6c9d" x="22.860281" y="332.813408" style="fill: #083471; stroke: #083471"/>
    </g>
    <g clip-path="url(#p38926ae608)">
     <use xlink:href="#C0_0_efe9ce6c9d" x="23.777573" y="332.813408" style="fill: #083573; stroke: #083573"/>
    </g>
    <g clip-path="url(#p38926ae608)">
     <use xlink:href="#C0_0_efe9ce6c9d" x="24.694864" y="332.813408" style="fill: #083776; stroke: #083776"/>
    </g>
    <g clip-path="url(#p38926ae608)">
     <use xlink:href="#C0_0_efe9ce6c9d" x="25.612156" y="332.813408" style="fill: #083a7a; stroke: #083a7a"/>
    </g>
    <g clip-path="url(#p38926ae608)">
     <use xlink:href="#C0_0_efe9ce6c9d" x="26.529448" y="332.813408" style="fill: #083b7c; stroke: #083b7c"/>
    </g>
    <g clip-path="url(#p38926ae608)">
     <use xlink:href="#C0_0_efe9ce6c9d" x="27.446739" y="332.813408" style="fill: #084184; stroke: #084184"/>
    </g>
    <g clip-path="url(#p38926ae608)">
     <use xlink:href="#C0_0_efe9ce6c9d" x="28.364031" y="332.813408" style="fill: #084184; stroke: #084184"/>
    </g>
    <g clip-path="url(#p38926ae608)">
     <use xlink:href="#C0_0_efe9ce6c9d" x="29.281322" y="332.813408" style="fill: #084082; stroke: #084082"/>
    </g>
    <g clip-path="url(#p38926ae608)">
     <use xlink:href="#C0_0_efe9ce6c9d" x="30.198614" y="332.813408" style="fill: #083e81; stroke: #083e81"/>
    </g>
    <g clip-path="url(#p38926ae608)">
     <use xlink:href="#C0_0_efe9ce6c9d" x="31.115906" y="332.813408" style="fill: #083c7d; stroke: #083c7d"/>
    </g>
    <g clip-path="url(#p38926ae608)">
     <use xlink:href="#C0_0_efe9ce6c9d" x="32.033197" y="332.813408" style="fill: #083e81; stroke: #083e81"/>
    </g>
    <g clip-path="url(#p38926ae608)">
     <use xlink:href="#C0_0_efe9ce6c9d" x="32.950489" y="332.813408" style="fill: #084082; stroke: #084082"/>
    </g>
    <g clip-path="url(#p38926ae608)">
     <use xlink:href="#C0_0_efe9ce6c9d" x="33.86778" y="332.813408" style="fill: #084285; stroke: #084285"/>
    </g>
    <g clip-path="url(#p38926ae608)">
     <use xlink:href="#C0_0_efe9ce6c9d" x="34.785072" y="332.813408" style="fill: #084285; stroke: #084285"/>
    </g>
    <g clip-path="url(#p38926ae608)">
     <use xlink:href="#C0_0_efe9ce6c9d" x="35.702364" y="332.813408" style="fill: #083d7f; stroke: #083d7f"/>
    </g>
    <g clip-path="url(#p38926ae608)">
     <use xlink:href="#C0_0_efe9ce6c9d" x="36.619655" y="332.813408" style="fill: #083b7c; stroke: #083b7c"/>
    </g>
    <g clip-path="url(#p38926ae608)">
     <use xlink:href="#C0_0_efe9ce6c9d" x="37.536947" y="332.813408" style="fill: #083b7c; stroke: #083b7c"/>
    </g>
    <g clip-path="url(#p38926ae608)">
     <use xlink:href="#C0_0_efe9ce6c9d" x="38.454239" y="332.813408" style="fill: #083a7a; stroke: #083a7a"/>
    </g>
    <g clip-path="url(#p38926ae608)">
     <use xlink:href="#C0_0_efe9ce6c9d" x="39.37153" y="332.813408" style="fill: #083979; stroke: #083979"/>
    </g>
    <g clip-path="url(#p38926ae608)">
     <use xlink:href="#C0_0_efe9ce6c9d" x="40.288822" y="332.813408" style="fill: #083877; stroke: #083877"/>
    </g>
    <g clip-path="url(#p38926ae608)">
     <use xlink:href="#C0_0_efe9ce6c9d" x="41.206113" y="332.813408" style="fill: #083674; stroke: #083674"/>
    </g>
    <g clip-path="url(#p38926ae608)">
     <use xlink:href="#C0_0_efe9ce6c9d" x="42.123405" y="332.813408" style="fill: #083573; stroke: #083573"/>
    </g>
    <g clip-path="url(#p38926ae608)">
     <use xlink:href="#C0_0_efe9ce6c9d" x="43.040697" y="332.813408" style="fill: #083370; stroke: #083370"/>
    </g>
    <g clip-path="url(#p38926ae608)">
     <use xlink:href="#C0_0_efe9ce6c9d" x="43.957988" y="332.813408" style="fill: #08316d; stroke: #08316d"/>
    </g>
    <g clip-path="url(#p38926ae608)">
     <use xlink:href="#C0_0_efe9ce6c9d" x="44.87528" y="332.813408" style="fill: #08306b; stroke: #08306b"/>
    </g>
    <g clip-path="url(#p38926ae608)">
     <use xlink:href="#C0_0_efe9ce6c9d" x="45.792571" y="332.813408" style="fill: #08306b; stroke: #08306b"/>
    </g>
    <g clip-path="url(#p38926ae608)">
     <use xlink:href="#C0_0_efe9ce6c9d" x="46.709863" y="335.571448" style="fill: #08306b; stroke: #08306b"/>
    </g>
    <g clip-path="url(#p38926ae608)">
     <use xlink:href="#C0_0_efe9ce6c9d" x="46.709863" y="332.813408" style="fill: #08306b; stroke: #08306b"/>
    </g>
    <g clip-path="url(#p38926ae608)">
     <use xlink:href="#C0_0_efe9ce6c9d" x="47.627155" y="335.571448" style="fill: #08306b; stroke: #08306b"/>
    </g>
    <g clip-path="url(#p38926ae608)">
     <use xlink:href="#C0_0_efe9ce6c9d" x="48.544446" y="335.571448" style="fill: #08306b; stroke: #08306b"/>
    </g>
    <g clip-path="url(#p38926ae608)">
     <use xlink:href="#C0_0_efe9ce6c9d" x="49.461738" y="335.571448" style="fill: #08306b; stroke: #08306b"/>
    </g>
    <g clip-path="url(#p38926ae608)">
     <use xlink:href="#C0_0_efe9ce6c9d" x="50.379029" y="335.571448" style="fill: #08306b; stroke: #08306b"/>
    </g>
    <g clip-path="url(#p38926ae608)">
     <use xlink:href="#C0_0_efe9ce6c9d" x="51.296321" y="335.571448" style="fill: #08306b; stroke: #08306b"/>
    </g>
    <g clip-path="url(#p38926ae608)">
     <use xlink:href="#C0_0_efe9ce6c9d" x="52.213613" y="335.571448" style="fill: #08306b; stroke: #08306b"/>
    </g>
    <g clip-path="url(#p38926ae608)">
     <use xlink:href="#C0_0_efe9ce6c9d" x="53.130904" y="335.571448" style="fill: #08306b; stroke: #08306b"/>
    </g>
    <g clip-path="url(#p38926ae608)">
     <use xlink:href="#C0_0_efe9ce6c9d" x="54.048196" y="335.571448" style="fill: #08316d; stroke: #08316d"/>
    </g>
    <g clip-path="url(#p38926ae608)">
     <use xlink:href="#C0_0_efe9ce6c9d" x="54.965487" y="335.571448" style="fill: #08326e; stroke: #08326e"/>
    </g>
    <g clip-path="url(#p38926ae608)">
     <use xlink:href="#C0_0_efe9ce6c9d" x="55.882779" y="335.571448" style="fill: #08316d; stroke: #08316d"/>
    </g>
    <g clip-path="url(#p38926ae608)">
     <use xlink:href="#C0_0_efe9ce6c9d" x="56.800071" y="335.571448" style="fill: #08316d; stroke: #08316d"/>
    </g>
    <g clip-path="url(#p38926ae608)">
     <use xlink:href="#C0_0_efe9ce6c9d" x="57.717362" y="335.571448" style="fill: #08306b; stroke: #08306b"/>
    </g>
    <g clip-path="url(#p38926ae608)">
     <use xlink:href="#C0_0_efe9ce6c9d" x="58.634654" y="335.571448" style="fill: #08306b; stroke: #08306b"/>
    </g>
    <g clip-path="url(#p38926ae608)">
     <use xlink:href="#C0_0_efe9ce6c9d" x="59.551946" y="335.571448" style="fill: #08306b; stroke: #08306b"/>
    </g>
    <g clip-path="url(#p38926ae608)">
     <use xlink:href="#C0_0_efe9ce6c9d" x="63.221112" y="338.329488" style="fill: #08306b; stroke: #08306b"/>
    </g>
    <g clip-path="url(#p38926ae608)">
     <use xlink:href="#C0_0_efe9ce6c9d" x="64.138404" y="338.329488" style="fill: #08306b; stroke: #08306b"/>
    </g>
    <g clip-path="url(#p38926ae608)">
     <use xlink:href="#C0_0_efe9ce6c9d" x="65.055695" y="338.329488" style="fill: #08306b; stroke: #08306b"/>
    </g>
    <g clip-path="url(#p38926ae608)">
     <use xlink:href="#C0_0_efe9ce6c9d" x="65.972987" y="338.329488" style="fill: #08306b; stroke: #08306b"/>
    </g>
    <g clip-path="url(#p38926ae608)">
     <use xlink:href="#C0_0_efe9ce6c9d" x="66.890278" y="338.329488" style="fill: #08306b; stroke: #08306b"/>
    </g>
    <g clip-path="url(#p38926ae608)">
     <use xlink:href="#C0_0_efe9ce6c9d" x="91.657152" y="203.185534" style="fill: #083370; stroke: #083370"/>
    </g>
    <g clip-path="url(#p38926ae608)">
     <use xlink:href="#C0_0_efe9ce6c9d" x="92.574443" y="203.185534" style="fill: #084488; stroke: #084488"/>
    </g>
    <g clip-path="url(#p38926ae608)">
     <use xlink:href="#C0_0_efe9ce6c9d" x="92.574443" y="200.427494" style="fill: #084285; stroke: #084285"/>
    </g>
    <g clip-path="url(#p38926ae608)">
     <use xlink:href="#C0_0_efe9ce6c9d" x="93.491735" y="200.427494" style="fill: #083979; stroke: #083979"/>
    </g>
    <g clip-path="url(#p38926ae608)">
     <use xlink:href="#C0_0_efe9ce6c9d" x="94.409027" y="200.427494" style="fill: #084082; stroke: #084082"/>
    </g>
    <g clip-path="url(#p38926ae608)">
     <use xlink:href="#C0_0_efe9ce6c9d" x="95.326318" y="200.427494" style="fill: #084285; stroke: #084285"/>
    </g>
    <g clip-path="url(#p38926ae608)">
     <use xlink:href="#C0_0_efe9ce6c9d" x="95.326318" y="181.121215" style="fill: #f7fbff; stroke: #f7fbff"/>
    </g>
    <g clip-path="url(#p38926ae608)">
     <use xlink:href="#C0_0_efe9ce6c9d" x="96.24361" y="200.427494" style="fill: #0a549e; stroke: #0a549e"/>
    </g>
    <g clip-path="url(#p38926ae608)">
     <use xlink:href="#C0_0_efe9ce6c9d" x="96.24361" y="183.879255" style="fill: #08316d; stroke: #08316d"/>
    </g>
    <g clip-path="url(#p38926ae608)">
     <use xlink:href="#C0_0_efe9ce6c9d" x="97.160901" y="200.427494" style="fill: #083c7d; stroke: #083c7d"/>
    </g>
    <g clip-path="url(#p38926ae608)">
     <use xlink:href="#C0_0_efe9ce6c9d" x="98.078193" y="186.637295" style="fill: #08306b; stroke: #08306b"/>
    </g>
    <g clip-path="url(#p38926ae608)">
     <use xlink:href="#C0_0_efe9ce6c9d" x="98.995485" y="189.395335" style="fill: #0f5aa3; stroke: #0f5aa3"/>
    </g>
    <g clip-path="url(#p38926ae608)">
     <use xlink:href="#C0_0_efe9ce6c9d" x="99.912776" y="189.395335" style="fill: #2777b8; stroke: #2777b8"/>
    </g>
    <g clip-path="url(#p38926ae608)">
     <use xlink:href="#C0_0_efe9ce6c9d" x="100.830068" y="192.153374" style="fill: #2d7dbb; stroke: #2d7dbb"/>
    </g>
    <g clip-path="url(#p38926ae608)">
     <use xlink:href="#C0_0_efe9ce6c9d" x="101.747359" y="192.153374" style="fill: #1460a8; stroke: #1460a8"/>
    </g>
    <g clip-path="url(#p38926ae608)">
     <use xlink:href="#C0_0_efe9ce6c9d" x="102.664651" y="194.911414" style="fill: #08306b; stroke: #08306b"/>
    </g>
    <g clip-path="url(#p38926ae608)">
     <use xlink:href="#C0_0_efe9ce6c9d" x="11.394136" y="336.950468" style="fill: #08306b; stroke: #08306b"/>
    </g>
    <g clip-path="url(#p38926ae608)">
     <use xlink:href="#C0_0_efe9ce6c9d" x="12.311428" y="336.950468" style="fill: #08306b; stroke: #08306b"/>
    </g>
    <g clip-path="url(#p38926ae608)">
     <use xlink:href="#C0_0_efe9ce6c9d" x="15.980594" y="334.192428" style="fill: #08306b; stroke: #08306b"/>
    </g>
    <g clip-path="url(#p38926ae608)">
     <use xlink:href="#C0_0_efe9ce6c9d" x="16.897886" y="334.192428" style="fill: #08326e; stroke: #08326e"/>
    </g>
    <g clip-path="url(#p38926ae608)">
     <use xlink:href="#C0_0_efe9ce6c9d" x="17.815177" y="334.192428" style="fill: #083370; stroke: #083370"/>
    </g>
    <g clip-path="url(#p38926ae608)">
     <use xlink:href="#C0_0_efe9ce6c9d" x="18.732469" y="334.192428" style="fill: #083370; stroke: #083370"/>
    </g>
    <g clip-path="url(#p38926ae608)">
     <use xlink:href="#C0_0_efe9ce6c9d" x="19.649761" y="334.192428" style="fill: #083471; stroke: #083471"/>
    </g>
    <g clip-path="url(#p38926ae608)">
     <use xlink:href="#C0_0_efe9ce6c9d" x="20.567052" y="334.192428" style="fill: #083674; stroke: #083674"/>
    </g>
    <g clip-path="url(#p38926ae608)">
     <use xlink:href="#C0_0_efe9ce6c9d" x="21.484344" y="334.192428" style="fill: #083573; stroke: #083573"/>
    </g>
    <g clip-path="url(#p38926ae608)">
     <use xlink:href="#C0_0_efe9ce6c9d" x="22.401635" y="334.192428" style="fill: #083370; stroke: #083370"/>
    </g>
    <g clip-path="url(#p38926ae608)">
     <use xlink:href="#C0_0_efe9ce6c9d" x="23.318927" y="334.192428" style="fill: #08326e; stroke: #08326e"/>
    </g>
    <g clip-path="url(#p38926ae608)">
     <use xlink:href="#C0_0_efe9ce6c9d" x="24.236219" y="334.192428" style="fill: #08316d; stroke: #08316d"/>
    </g>
    <g clip-path="url(#p38926ae608)">
     <use xlink:href="#C0_0_efe9ce6c9d" x="25.15351" y="334.192428" style="fill: #08326e; stroke: #08326e"/>
    </g>
    <g clip-path="url(#p38926ae608)">
     <use xlink:href="#C0_0_efe9ce6c9d" x="26.070802" y="334.192428" style="fill: #08316d; stroke: #08316d"/>
    </g>
    <g clip-path="url(#p38926ae608)">
     <use xlink:href="#C0_0_efe9ce6c9d" x="26.988093" y="334.192428" style="fill: #08316d; stroke: #08316d"/>
    </g>
    <g clip-path="url(#p38926ae608)">
     <use xlink:href="#C0_0_efe9ce6c9d" x="27.905385" y="334.192428" style="fill: #08316d; stroke: #08316d"/>
    </g>
    <g clip-path="url(#p38926ae608)">
     <use xlink:href="#C0_0_efe9ce6c9d" x="28.822677" y="334.192428" style="fill: #08306b; stroke: #08306b"/>
    </g>
    <g clip-path="url(#p38926ae608)">
     <use xlink:href="#C0_0_efe9ce6c9d" x="29.739968" y="334.192428" style="fill: #08306b; stroke: #08306b"/>
    </g>
    <g clip-path="url(#p38926ae608)">
     <use xlink:href="#C0_0_efe9ce6c9d" x="30.65726" y="334.192428" style="fill: #08306b; stroke: #08306b"/>
    </g>
    <g clip-path="url(#p38926ae608)">
     <use xlink:href="#C0_0_efe9ce6c9d" x="31.574551" y="334.192428" style="fill: #08306b; stroke: #08306b"/>
    </g>
    <g clip-path="url(#p38926ae608)">
     <use xlink:href="#C0_0_efe9ce6c9d" x="32.491843" y="334.192428" style="fill: #08306b; stroke: #08306b"/>
    </g>
    <g clip-path="url(#p38926ae608)">
     <use xlink:href="#C0_0_efe9ce6c9d" x="33.409135" y="334.192428" style="fill: #08316d; stroke: #08316d"/>
    </g>
    <g clip-path="url(#p38926ae608)">
     <use xlink:href="#C0_0_efe9ce6c9d" x="34.326426" y="334.192428" style="fill: #08306b; stroke: #08306b"/>
    </g>
    <g clip-path="url(#p38926ae608)">
     <use xlink:href="#C0_0_efe9ce6c9d" x="35.243718" y="334.192428" style="fill: #08316d; stroke: #08316d"/>
    </g>
    <g clip-path="url(#p38926ae608)">
     <use xlink:href="#C0_0_efe9ce6c9d" x="36.16101" y="334.192428" style="fill: #08326e; stroke: #08326e"/>
    </g>
    <g clip-path="url(#p38926ae608)">
     <use xlink:href="#C0_0_efe9ce6c9d" x="37.078301" y="334.192428" style="fill: #08326e; stroke: #08326e"/>
    </g>
    <g clip-path="url(#p38926ae608)">
     <use xlink:href="#C0_0_efe9ce6c9d" x="37.995593" y="334.192428" style="fill: #083370; stroke: #083370"/>
    </g>
    <g clip-path="url(#p38926ae608)">
     <use xlink:href="#C0_0_efe9ce6c9d" x="38.912884" y="334.192428" style="fill: #083370; stroke: #083370"/>
    </g>
    <g clip-path="url(#p38926ae608)">
     <use xlink:href="#C0_0_efe9ce6c9d" x="39.830176" y="334.192428" style="fill: #083471; stroke: #083471"/>
    </g>
    <g clip-path="url(#p38926ae608)">
     <use xlink:href="#C0_0_efe9ce6c9d" x="40.747468" y="334.192428" style="fill: #083471; stroke: #083471"/>
    </g>
    <g clip-path="url(#p38926ae608)">
     <use xlink:href="#C0_0_efe9ce6c9d" x="41.664759" y="334.192428" style="fill: #083674; stroke: #083674"/>
    </g>
    <g clip-path="url(#p38926ae608)">
     <use xlink:href="#C0_0_efe9ce6c9d" x="42.582051" y="334.192428" style="fill: #083776; stroke: #083776"/>
    </g>
    <g clip-path="url(#p38926ae608)">
     <use xlink:href="#C0_0_efe9ce6c9d" x="43.499342" y="334.192428" style="fill: #083877; stroke: #083877"/>
    </g>
    <g clip-path="url(#p38926ae608)">
     <use xlink:href="#C0_0_efe9ce6c9d" x="44.416634" y="334.192428" style="fill: #083979; stroke: #083979"/>
    </g>
    <g clip-path="url(#p38926ae608)">
     <use xlink:href="#C0_0_efe9ce6c9d" x="45.333926" y="334.192428" style="fill: #083979; stroke: #083979"/>
    </g>
    <g clip-path="url(#p38926ae608)">
     <use xlink:href="#C0_0_efe9ce6c9d" x="46.251217" y="334.192428" style="fill: #083776; stroke: #083776"/>
    </g>
    <g clip-path="url(#p38926ae608)">
     <use xlink:href="#C0_0_efe9ce6c9d" x="47.168509" y="334.192428" style="fill: #083b7c; stroke: #083b7c"/>
    </g>
    <g clip-path="url(#p38926ae608)">
     <use xlink:href="#C0_0_efe9ce6c9d" x="48.0858" y="334.192428" style="fill: #083573; stroke: #083573"/>
    </g>
    <g clip-path="url(#p38926ae608)">
     <use xlink:href="#C0_0_efe9ce6c9d" x="49.003092" y="334.192428" style="fill: #083471; stroke: #083471"/>
    </g>
    <g clip-path="url(#p38926ae608)">
     <use xlink:href="#C0_0_efe9ce6c9d" x="49.920384" y="334.192428" style="fill: #083370; stroke: #083370"/>
    </g>
    <g clip-path="url(#p38926ae608)">
     <use xlink:href="#C0_0_efe9ce6c9d" x="50.837675" y="334.192428" style="fill: #08326e; stroke: #08326e"/>
    </g>
    <g clip-path="url(#p38926ae608)">
     <use xlink:href="#C0_0_efe9ce6c9d" x="51.754967" y="334.192428" style="fill: #08326e; stroke: #08326e"/>
    </g>
    <g clip-path="url(#p38926ae608)">
     <use xlink:href="#C0_0_efe9ce6c9d" x="52.672258" y="334.192428" style="fill: #08316d; stroke: #08316d"/>
    </g>
    <g clip-path="url(#p38926ae608)">
     <use xlink:href="#C0_0_efe9ce6c9d" x="53.58955" y="334.192428" style="fill: #08306b; stroke: #08306b"/>
    </g>
    <g clip-path="url(#p38926ae608)">
     <use xlink:href="#C0_0_efe9ce6c9d" x="54.506842" y="334.192428" style="fill: #08306b; stroke: #08306b"/>
    </g>
    <g clip-path="url(#p38926ae608)">
     <use xlink:href="#C0_0_efe9ce6c9d" x="56.341425" y="336.950468" style="fill: #08306b; stroke: #08306b"/>
    </g>
    <g clip-path="url(#p38926ae608)">
     <use xlink:href="#C0_0_efe9ce6c9d" x="57.258716" y="336.950468" style="fill: #08306b; stroke: #08306b"/>
    </g>
    <g clip-path="url(#p38926ae608)">
     <use xlink:href="#C0_0_efe9ce6c9d" x="58.176008" y="336.950468" style="fill: #08306b; stroke: #08306b"/>
    </g>
    <g clip-path="url(#p38926ae608)">
     <use xlink:href="#C0_0_efe9ce6c9d" x="59.0933" y="336.950468" style="fill: #08306b; stroke: #08306b"/>
    </g>
    <g clip-path="url(#p38926ae608)">
     <use xlink:href="#C0_0_efe9ce6c9d" x="60.010591" y="336.950468" style="fill: #08306b; stroke: #08306b"/>
    </g>
    <g clip-path="url(#p38926ae608)">
     <use xlink:href="#C0_0_efe9ce6c9d" x="60.927883" y="336.950468" style="fill: #08306b; stroke: #08306b"/>
    </g>
    <g clip-path="url(#p38926ae608)">
     <use xlink:href="#C0_0_efe9ce6c9d" x="61.845175" y="336.950468" style="fill: #08306b; stroke: #08306b"/>
    </g>
    <g clip-path="url(#p38926ae608)">
     <use xlink:href="#C0_0_efe9ce6c9d" x="62.762466" y="336.950468" style="fill: #08306b; stroke: #08306b"/>
    </g>
    <g clip-path="url(#p38926ae608)">
     <use xlink:href="#C0_0_efe9ce6c9d" x="63.679758" y="336.950468" style="fill: #08306b; stroke: #08306b"/>
    </g>
    <g clip-path="url(#p38926ae608)">
     <use xlink:href="#C0_0_efe9ce6c9d" x="64.597049" y="336.950468" style="fill: #08306b; stroke: #08306b"/>
    </g>
    <g clip-path="url(#p38926ae608)">
     <use xlink:href="#C0_0_efe9ce6c9d" x="92.115798" y="201.806514" style="fill: #0e58a2; stroke: #0e58a2"/>
    </g>
    <g clip-path="url(#p38926ae608)">
     <use xlink:href="#C0_0_efe9ce6c9d" x="93.033089" y="201.806514" style="fill: #3282be; stroke: #3282be"/>
    </g>
    <g clip-path="url(#p38926ae608)">
     <use xlink:href="#C0_0_efe9ce6c9d" x="93.950381" y="201.806514" style="fill: #08316d; stroke: #08316d"/>
    </g>
    <g clip-path="url(#p38926ae608)">
     <use xlink:href="#C0_0_efe9ce6c9d" x="94.867672" y="201.806514" style="fill: #2b7bba; stroke: #2b7bba"/>
    </g>
    <g clip-path="url(#p38926ae608)">
     <use xlink:href="#C0_0_efe9ce6c9d" x="94.867672" y="182.500235" style="fill: #08306b; stroke: #08306b"/>
    </g>
    <g clip-path="url(#p38926ae608)">
     <use xlink:href="#C0_0_efe9ce6c9d" x="95.784964" y="201.806514" style="fill: #08458a; stroke: #08458a"/>
    </g>
    <g clip-path="url(#p38926ae608)">
     <use xlink:href="#C0_0_efe9ce6c9d" x="95.784964" y="182.500235" style="fill: #b7d4ea; stroke: #b7d4ea"/>
    </g>
    <g clip-path="url(#p38926ae608)">
     <use xlink:href="#C0_0_efe9ce6c9d" x="96.702256" y="201.806514" style="fill: #3686c0; stroke: #3686c0"/>
    </g>
    <g clip-path="url(#p38926ae608)">
     <use xlink:href="#C0_0_efe9ce6c9d" x="97.619547" y="201.806514" style="fill: #083674; stroke: #083674"/>
    </g>
    <g clip-path="url(#p38926ae608)">
     <use xlink:href="#C0_0_efe9ce6c9d" x="98.536839" y="188.016315" style="fill: #1c6ab0; stroke: #1c6ab0"/>
    </g>
    <g clip-path="url(#p38926ae608)">
     <use xlink:href="#C0_0_efe9ce6c9d" x="99.45413" y="188.016315" style="fill: #0c56a0; stroke: #0c56a0"/>
    </g>
    <g clip-path="url(#p38926ae608)">
     <use xlink:href="#C0_0_efe9ce6c9d" x="100.371422" y="190.774355" style="fill: #4191c6; stroke: #4191c6"/>
    </g>
    <g clip-path="url(#p38926ae608)">
     <use xlink:href="#C0_0_efe9ce6c9d" x="102.206005" y="193.532394" style="fill: #083877; stroke: #083877"/>
    </g>
   </g>
   <g id="line2d_1">
    <path d="M 141.12 269.568 
L 236.16 104.953891 
L 331.2 269.568 
L 141.12 269.568 
" clip-path="url(#p38926ae608)" style="fill: none; stroke: #ffa500; stroke-width: 1.5; stroke-linecap: round"/>
   </g>
   <g id="line2d_2">
    <path d="M 236.16 214.69663 
L 236.16 269.568 
" clip-path="url(#p38926ae608)" style="fill: none; stroke: #ffa500; stroke-width: 1.5; stroke-linecap: round"/>
   </g>
   <g id="line2d_3">
    <path d="M 236.16 214.69663 
L 188.64 187.260946 
" clip-path="url(#p38926ae608)" style="fill: none; stroke: #ffa500; stroke-width: 1.5; stroke-linecap: round"/>
   </g>
   <g id="line2d_4">
    <path d="M 236.16 214.69663 
L 283.68 187.260946 
" clip-path="url(#p38926ae608)" style="fill: none; stroke: #ffa500; stroke-width: 1.5; stroke-linecap: round"/>
   </g>
   <g id="text_1">
    <!-- p(CHAC_rectangle) = 0.250 -->
    <g style="fill: #262626" transform="translate(58.397813 286.289325) scale(0.12 -0.12)">
     <defs>
      <path id="DejaVuSans-70" d="M 1159 525 
L 1159 -1331 
L 581 -1331 
L 581 3500 
L 1159 3500 
L 1159 2969 
Q 1341 3281 1617 3432 
Q 1894 3584 2278 3584 
Q 2916 3584 3314 3078 
Q 3713 2572 3713 1747 
Q 3713 922 3314 415 
Q 2916 -91 2278 -91 
Q 1894 -91 1617 61 
Q 1341 213 1159 525 
z
M 3116 1747 
Q 3116 2381 2855 2742 
Q 2594 3103 2138 3103 
Q 1681 3103 1420 2742 
Q 1159 2381 1159 1747 
Q 1159 1113 1420 752 
Q 1681 391 2138 391 
Q 2594 391 2855 752 
Q 3116 1113 3116 1747 
z
" transform="scale(0.015625)"/>
      <path id="DejaVuSans-28" d="M 1984 4856 
Q 1566 4138 1362 3434 
Q 1159 2731 1159 2009 
Q 1159 1288 1364 580 
Q 1569 -128 1984 -844 
L 1484 -844 
Q 1016 -109 783 600 
Q 550 1309 550 2009 
Q 550 2706 781 3412 
Q 1013 4119 1484 4856 
L 1984 4856 
z
" transform="scale(0.015625)"/>
      <path id="DejaVuSans-43" d="M 4122 4306 
L 4122 3641 
Q 3803 3938 3442 4084 
Q 3081 4231 2675 4231 
Q 1875 4231 1450 3742 
Q 1025 3253 1025 2328 
Q 1025 1406 1450 917 
Q 1875 428 2675 428 
Q 3081 428 3442 575 
Q 3803 722 4122 1019 
L 4122 359 
Q 3791 134 3420 21 
Q 3050 -91 2638 -91 
Q 1578 -91 968 557 
Q 359 1206 359 2328 
Q 359 3453 968 4101 
Q 1578 4750 2638 4750 
Q 3056 4750 3426 4639 
Q 3797 4528 4122 4306 
z
" transform="scale(0.015625)"/>
      <path id="DejaVuSans-48" d="M 628 4666 
L 1259 4666 
L 1259 2753 
L 3553 2753 
L 3553 4666 
L 4184 4666 
L 4184 0 
L 3553 0 
L 3553 2222 
L 1259 2222 
L 1259 0 
L 628 0 
L 628 4666 
z
" transform="scale(0.015625)"/>
      <path id="DejaVuSans-41" d="M 2188 4044 
L 1331 1722 
L 3047 1722 
L 2188 4044 
z
M 1831 4666 
L 2547 4666 
L 4325 0 
L 3669 0 
L 3244 1197 
L 1141 1197 
L 716 0 
L 50 0 
L 1831 4666 
z
" transform="scale(0.015625)"/>
      <path id="DejaVuSans-5f" d="M 3263 -1063 
L 3263 -1509 
L -63 -1509 
L -63 -1063 
L 3263 -1063 
z
" transform="scale(0.015625)"/>
      <path id="DejaVuSans-72" d="M 2631 2963 
Q 2534 3019 2420 3045 
Q 2306 3072 2169 3072 
Q 1681 3072 1420 2755 
Q 1159 2438 1159 1844 
L 1159 0 
L 581 0 
L 581 3500 
L 1159 3500 
L 1159 2956 
Q 1341 3275 1631 3429 
Q 1922 3584 2338 3584 
Q 2397 3584 2469 3576 
Q 2541 3569 2628 3553 
L 2631 2963 
z
" transform="scale(0.015625)"/>
      <path id="DejaVuSans-65" d="M 3597 1894 
L 3597 1613 
L 953 1613 
Q 991 1019 1311 708 
Q 1631 397 2203 397 
Q 2534 397 2845 478 
Q 3156 559 3463 722 
L 3463 178 
Q 3153 47 2828 -22 
Q 2503 -91 2169 -91 
Q 1331 -91 842 396 
Q 353 884 353 1716 
Q 353 2575 817 3079 
Q 1281 3584 2069 3584 
Q 2775 3584 3186 3129 
Q 3597 2675 3597 1894 
z
M 3022 2063 
Q 3016 2534 2758 2815 
Q 2500 3097 2075 3097 
Q 1594 3097 1305 2825 
Q 1016 2553 972 2059 
L 3022 2063 
z
" transform="scale(0.015625)"/>
      <path id="DejaVuSans-63" d="M 3122 3366 
L 3122 2828 
Q 2878 2963 2633 3030 
Q 2388 3097 2138 3097 
Q 1578 3097 1268 2742 
Q 959 2388 959 1747 
Q 959 1106 1268 751 
Q 1578 397 2138 397 
Q 2388 397 2633 464 
Q 2878 531 3122 666 
L 3122 134 
Q 2881 22 2623 -34 
Q 2366 -91 2075 -91 
Q 1284 -91 818 406 
Q 353 903 353 1747 
Q 353 2603 823 3093 
Q 1294 3584 2113 3584 
Q 2378 3584 2631 3529 
Q 2884 3475 3122 3366 
z
" transform="scale(0.015625)"/>
      <path id="DejaVuSans-74" d="M 1172 4494 
L 1172 3500 
L 2356 3500 
L 2356 3053 
L 1172 3053 
L 1172 1153 
Q 1172 725 1289 603 
Q 1406 481 1766 481 
L 2356 481 
L 2356 0 
L 1766 0 
Q 1100 0 847 248 
Q 594 497 594 1153 
L 594 3053 
L 172 3053 
L 172 3500 
L 594 3500 
L 594 4494 
L 1172 4494 
z
" transform="scale(0.015625)"/>
      <path id="DejaVuSans-61" d="M 2194 1759 
Q 1497 1759 1228 1600 
Q 959 1441 959 1056 
Q 959 750 1161 570 
Q 1363 391 1709 391 
Q 2188 391 2477 730 
Q 2766 1069 2766 1631 
L 2766 1759 
L 2194 1759 
z
M 3341 1997 
L 3341 0 
L 2766 0 
L 2766 531 
Q 2569 213 2275 61 
Q 1981 -91 1556 -91 
Q 1019 -91 701 211 
Q 384 513 384 1019 
Q 384 1609 779 1909 
Q 1175 2209 1959 2209 
L 2766 2209 
L 2766 2266 
Q 2766 2663 2505 2880 
Q 2244 3097 1772 3097 
Q 1472 3097 1187 3025 
Q 903 2953 641 2809 
L 641 3341 
Q 956 3463 1253 3523 
Q 1550 3584 1831 3584 
Q 2591 3584 2966 3190 
Q 3341 2797 3341 1997 
z
" transform="scale(0.015625)"/>
      <path id="DejaVuSans-6e" d="M 3513 2113 
L 3513 0 
L 2938 0 
L 2938 2094 
Q 2938 2591 2744 2837 
Q 2550 3084 2163 3084 
Q 1697 3084 1428 2787 
Q 1159 2491 1159 1978 
L 1159 0 
L 581 0 
L 581 3500 
L 1159 3500 
L 1159 2956 
Q 1366 3272 1645 3428 
Q 1925 3584 2291 3584 
Q 2894 3584 3203 3211 
Q 3513 2838 3513 2113 
z
" transform="scale(0.015625)"/>
      <path id="DejaVuSans-67" d="M 2906 1791 
Q 2906 2416 2648 2759 
Q 2391 3103 1925 3103 
Q 1463 3103 1205 2759 
Q 947 2416 947 1791 
Q 947 1169 1205 825 
Q 1463 481 1925 481 
Q 2391 481 2648 825 
Q 2906 1169 2906 1791 
z
M 3481 434 
Q 3481 -459 3084 -895 
Q 2688 -1331 1869 -1331 
Q 1566 -1331 1297 -1286 
Q 1028 -1241 775 -1147 
L 775 -588 
Q 1028 -725 1275 -790 
Q 1522 -856 1778 -856 
Q 2344 -856 2625 -561 
Q 2906 -266 2906 331 
L 2906 616 
Q 2728 306 2450 153 
Q 2172 0 1784 0 
Q 1141 0 747 490 
Q 353 981 353 1791 
Q 353 2603 747 3093 
Q 1141 3584 1784 3584 
Q 2172 3584 2450 3431 
Q 2728 3278 2906 2969 
L 2906 3500 
L 3481 3500 
L 3481 434 
z
" transform="scale(0.015625)"/>
      <path id="DejaVuSans-6c" d="M 603 4863 
L 1178 4863 
L 1178 0 
L 603 0 
L 603 4863 
z
" transform="scale(0.015625)"/>
      <path id="DejaVuSans-29" d="M 513 4856 
L 1013 4856 
Q 1481 4119 1714 3412 
Q 1947 2706 1947 2009 
Q 1947 1309 1714 600 
Q 1481 -109 1013 -844 
L 513 -844 
Q 928 -128 1133 580 
Q 1338 1288 1338 2009 
Q 1338 2731 1133 3434 
Q 928 4138 513 4856 
z
" transform="scale(0.015625)"/>
      <path id="DejaVuSans-20" transform="scale(0.015625)"/>
      <path id="DejaVuSans-3d" d="M 678 2906 
L 4684 2906 
L 4684 2381 
L 678 2381 
L 678 2906 
z
M 678 1631 
L 4684 1631 
L 4684 1100 
L 678 1100 
L 678 1631 
z
" transform="scale(0.015625)"/>
      <path id="DejaVuSans-30" d="M 2034 4250 
Q 1547 4250 1301 3770 
Q 1056 3291 1056 2328 
Q 1056 1369 1301 889 
Q 1547 409 2034 409 
Q 2525 409 2770 889 
Q 3016 1369 3016 2328 
Q 3016 3291 2770 3770 
Q 2525 4250 2034 4250 
z
M 2034 4750 
Q 2819 4750 3233 4129 
Q 3647 3509 3647 2328 
Q 3647 1150 3233 529 
Q 2819 -91 2034 -91 
Q 1250 -91 836 529 
Q 422 1150 422 2328 
Q 422 3509 836 4129 
Q 1250 4750 2034 4750 
z
" transform="scale(0.015625)"/>
      <path id="DejaVuSans-2e" d="M 684 794 
L 1344 794 
L 1344 0 
L 684 0 
L 684 794 
z
" transform="scale(0.015625)"/>
      <path id="DejaVuSans-32" d="M 1228 531 
L 3431 531 
L 3431 0 
L 469 0 
L 469 531 
Q 828 903 1448 1529 
Q 2069 2156 2228 2338 
Q 2531 2678 2651 2914 
Q 2772 3150 2772 3378 
Q 2772 3750 2511 3984 
Q 2250 4219 1831 4219 
Q 1534 4219 1204 4116 
Q 875 4013 500 3803 
L 500 4441 
Q 881 4594 1212 4672 
Q 1544 4750 1819 4750 
Q 2544 4750 2975 4387 
Q 3406 4025 3406 3419 
Q 3406 3131 3298 2873 
Q 3191 2616 2906 2266 
Q 2828 2175 2409 1742 
Q 1991 1309 1228 531 
z
" transform="scale(0.015625)"/>
      <path id="DejaVuSans-35" d="M 691 4666 
L 3169 4666 
L 3169 4134 
L 1269 4134 
L 1269 2991 
Q 1406 3038 1543 3061 
Q 1681 3084 1819 3084 
Q 2600 3084 3056 2656 
Q 3513 2228 3513 1497 
Q 3513 744 3044 326 
Q 2575 -91 1722 -91 
Q 1428 -91 1123 -41 
Q 819 9 494 109 
L 494 744 
Q 775 591 1075 516 
Q 1375 441 1709 441 
Q 2250 441 2565 725 
Q 2881 1009 2881 1497 
Q 2881 1984 2565 2268 
Q 2250 2553 1709 2553 
Q 1456 2553 1204 2497 
Q 953 2441 691 2322 
L 691 4666 
z
" transform="scale(0.015625)"/>
     </defs>
     <use xlink:href="#DejaVuSans-70"/>
     <use xlink:href="#DejaVuSans-28" x="63.476562"/>
     <use xlink:href="#DejaVuSans-43" x="102.490234"/>
     <use xlink:href="#DejaVuSans-48" x="172.314453"/>
     <use xlink:href="#DejaVuSans-41" x="247.509766"/>
     <use xlink:href="#DejaVuSans-43" x="314.167969"/>
     <use xlink:href="#DejaVuSans-5f" x="383.992188"/>
     <use xlink:href="#DejaVuSans-72" x="433.992188"/>
     <use xlink:href="#DejaVuSans-65" x="472.855469"/>
     <use xlink:href="#DejaVuSans-63" x="534.378906"/>
     <use xlink:href="#DejaVuSans-74" x="589.359375"/>
     <use xlink:href="#DejaVuSans-61" x="628.568359"/>
     <use xlink:href="#DejaVuSans-6e" x="689.847656"/>
     <use xlink:href="#DejaVuSans-67" x="753.226562"/>
     <use xlink:href="#DejaVuSans-6c" x="816.703125"/>
     <use xlink:href="#DejaVuSans-65" x="844.486328"/>
     <use xlink:href="#DejaVuSans-29" x="906.009766"/>
     <use xlink:href="#DejaVuSans-20" x="945.023438"/>
     <use xlink:href="#DejaVuSans-3d" x="976.810547"/>
     <use xlink:href="#DejaVuSans-20" x="1060.599609"/>
     <use xlink:href="#DejaVuSans-30" x="1092.386719"/>
     <use xlink:href="#DejaVuSans-2e" x="1156.009766"/>
     <use xlink:href="#DejaVuSans-32" x="1187.796875"/>
     <use xlink:href="#DejaVuSans-35" x="1251.419922"/>
     <use xlink:href="#DejaVuSans-30" x="1315.042969"/>
    </g>
   </g>
   <g id="text_2">
    <!-- p(rope) = 0.750 -->
    <g style="fill: #262626" transform="translate(188.146875 102.458266) scale(0.12 -0.12)">
     <defs>
      <path id="DejaVuSans-6f" d="M 1959 3097 
Q 1497 3097 1228 2736 
Q 959 2375 959 1747 
Q 959 1119 1226 758 
Q 1494 397 1959 397 
Q 2419 397 2687 759 
Q 2956 1122 2956 1747 
Q 2956 2369 2687 2733 
Q 2419 3097 1959 3097 
z
M 1959 3584 
Q 2709 3584 3137 3096 
Q 3566 2609 3566 1747 
Q 3566 888 3137 398 
Q 2709 -91 1959 -91 
Q 1206 -91 779 398 
Q 353 888 353 1747 
Q 353 2609 779 3096 
Q 1206 3584 1959 3584 
z
" transform="scale(0.015625)"/>
      <path id="DejaVuSans-37" d="M 525 4666 
L 3525 4666 
L 3525 4397 
L 1831 0 
L 1172 0 
L 2766 4134 
L 525 4134 
L 525 4666 
z
" transform="scale(0.015625)"/>
     </defs>
     <use xlink:href="#DejaVuSans-70"/>
     <use xlink:href="#DejaVuSans-28" x="63.476562"/>
     <use xlink:href="#DejaVuSans-72" x="102.490234"/>
     <use xlink:href="#DejaVuSans-6f" x="141.353516"/>
     <use xlink:href="#DejaVuSans-70" x="202.535156"/>
     <use xlink:href="#DejaVuSans-65" x="266.011719"/>
     <use xlink:href="#DejaVuSans-29" x="327.535156"/>
     <use xlink:href="#DejaVuSans-20" x="366.548828"/>
     <use xlink:href="#DejaVuSans-3d" x="398.335938"/>
     <use xlink:href="#DejaVuSans-20" x="482.125"/>
     <use xlink:href="#DejaVuSans-30" x="513.912109"/>
     <use xlink:href="#DejaVuSans-2e" x="577.535156"/>
     <use xlink:href="#DejaVuSans-37" x="609.322266"/>
     <use xlink:href="#DejaVuSans-35" x="672.945312"/>
     <use xlink:href="#DejaVuSans-30" x="736.568359"/>
    </g>
   </g>
   <g id="text_3">
    <!-- p(CHAC_proximity) = 0.000 -->
    <g style="fill: #262626" transform="translate(248.5425 286.289325) scale(0.12 -0.12)">
     <defs>
      <path id="DejaVuSans-78" d="M 3513 3500 
L 2247 1797 
L 3578 0 
L 2900 0 
L 1881 1375 
L 863 0 
L 184 0 
L 1544 1831 
L 300 3500 
L 978 3500 
L 1906 2253 
L 2834 3500 
L 3513 3500 
z
" transform="scale(0.015625)"/>
      <path id="DejaVuSans-69" d="M 603 3500 
L 1178 3500 
L 1178 0 
L 603 0 
L 603 3500 
z
M 603 4863 
L 1178 4863 
L 1178 4134 
L 603 4134 
L 603 4863 
z
" transform="scale(0.015625)"/>
      <path id="DejaVuSans-6d" d="M 3328 2828 
Q 3544 3216 3844 3400 
Q 4144 3584 4550 3584 
Q 5097 3584 5394 3201 
Q 5691 2819 5691 2113 
L 5691 0 
L 5113 0 
L 5113 2094 
Q 5113 2597 4934 2840 
Q 4756 3084 4391 3084 
Q 3944 3084 3684 2787 
Q 3425 2491 3425 1978 
L 3425 0 
L 2847 0 
L 2847 2094 
Q 2847 2600 2669 2842 
Q 2491 3084 2119 3084 
Q 1678 3084 1418 2786 
Q 1159 2488 1159 1978 
L 1159 0 
L 581 0 
L 581 3500 
L 1159 3500 
L 1159 2956 
Q 1356 3278 1631 3431 
Q 1906 3584 2284 3584 
Q 2666 3584 2933 3390 
Q 3200 3197 3328 2828 
z
" transform="scale(0.015625)"/>
      <path id="DejaVuSans-79" d="M 2059 -325 
Q 1816 -950 1584 -1140 
Q 1353 -1331 966 -1331 
L 506 -1331 
L 506 -850 
L 844 -850 
Q 1081 -850 1212 -737 
Q 1344 -625 1503 -206 
L 1606 56 
L 191 3500 
L 800 3500 
L 1894 763 
L 2988 3500 
L 3597 3500 
L 2059 -325 
z
" transform="scale(0.015625)"/>
     </defs>
     <use xlink:href="#DejaVuSans-70"/>
     <use xlink:href="#DejaVuSans-28" x="63.476562"/>
     <use xlink:href="#DejaVuSans-43" x="102.490234"/>
     <use xlink:href="#DejaVuSans-48" x="172.314453"/>
     <use xlink:href="#DejaVuSans-41" x="247.509766"/>
     <use xlink:href="#DejaVuSans-43" x="314.167969"/>
     <use xlink:href="#DejaVuSans-5f" x="383.992188"/>
     <use xlink:href="#DejaVuSans-70" x="433.992188"/>
     <use xlink:href="#DejaVuSans-72" x="497.46875"/>
     <use xlink:href="#DejaVuSans-6f" x="536.332031"/>
     <use xlink:href="#DejaVuSans-78" x="594.388672"/>
     <use xlink:href="#DejaVuSans-69" x="653.568359"/>
     <use xlink:href="#DejaVuSans-6d" x="681.351562"/>
     <use xlink:href="#DejaVuSans-69" x="778.763672"/>
     <use xlink:href="#DejaVuSans-74" x="806.546875"/>
     <use xlink:href="#DejaVuSans-79" x="845.755859"/>
     <use xlink:href="#DejaVuSans-29" x="904.935547"/>
     <use xlink:href="#DejaVuSans-20" x="943.949219"/>
     <use xlink:href="#DejaVuSans-3d" x="975.736328"/>
     <use xlink:href="#DejaVuSans-20" x="1059.525391"/>
     <use xlink:href="#DejaVuSans-30" x="1091.3125"/>
     <use xlink:href="#DejaVuSans-2e" x="1154.935547"/>
     <use xlink:href="#DejaVuSans-30" x="1186.722656"/>
     <use xlink:href="#DejaVuSans-30" x="1250.345703"/>
     <use xlink:href="#DejaVuSans-30" x="1313.96875"/>
    </g>
   </g>
  </g>
 </g>
 <defs>
  <clipPath id="p38926ae608">
   <rect x="103.104" y="41.472" width="266.112" height="266.112"/>
  </clipPath>
 </defs>
</svg>
